{
    "asset" : {
        "generator" : "Khronos glTF Blender I/O v1.8.19",
        "version" : "2.0"
    },
    "scene" : 0,
    "scenes" : [
        {
            "extras" : {
                "b_export" : 1,
                "b_settings" : 1,
                "b_vr_controllers" : 0,
                "b_camera_cube" : 0,
                "s_aframe_version" : "1.3.0",
                "b_renderer" : 0,
                "b_player" : 0,
                "b_interactive" : 0,
                "b_bake_lightmap" : 0,
                "s_output" : "exporting...",
                "b_cubemap" : 1,
                "b_use_default_lights" : 0,
                "f_player_height" : 1.600000023841858,
                "b_export_single_model" : 0,
                "b_cubemap_background" : 0,
                "b_show_env_sky" : 0,
                "b_raycast" : 0,
                "s_showhide_object" : "Plane.001",
                "export_path" : "C:/Temp/Dev"
            },
            "name" : "Scene",
            "nodes" : [
                0
            ]
        }
    ],
    "nodes" : [
        {
            "mesh" : 0,
            "name" : "Circle.001",
            "scale" : [
                0.009999999776482582,
                1,
                0.009999999776482582
            ]
        }
    ],
    "materials" : [
        {
            "doubleSided" : true,
            "name" : "EtherCAT",
            "pbrMetallicRoughness" : {
                "baseColorFactor" : [
                    0.0021205139346420765,
                    0.003804771462455392,
                    0.006553678773343563,
                    1
                ],
                "metallicFactor" : 0,
                "roughnessFactor" : 0.5
            }
        }
    ],
    "meshes" : [
        {
            "name" : "Circle.002",
            "primitives" : [
                {
                    "attributes" : {
                        "POSITION" : 0,
                        "NORMAL" : 1,
                        "TEXCOORD_0" : 2
                    },
                    "indices" : 3,
                    "material" : 0
                }
            ]
        }
    ],
    "accessors" : [
        {
            "bufferView" : 0,
            "componentType" : 5126,
            "count" : 32,
            "max" : [
                1,
                0,
                1
            ],
            "min" : [
                -1,
                0,
                -1
            ],
            "type" : "VEC3"
        },
        {
            "bufferView" : 1,
            "componentType" : 5126,
            "count" : 32,
            "type" : "VEC3"
        },
        {
            "bufferView" : 2,
            "componentType" : 5126,
            "count" : 32,
            "type" : "VEC2"
        },
        {
            "bufferView" : 3,
            "componentType" : 5123,
            "count" : 90,
            "type" : "SCALAR"
        }
    ],
    "bufferViews" : [
        {
            "buffer" : 0,
            "byteLength" : 384,
            "byteOffset" : 0
        },
        {
            "buffer" : 0,
            "byteLength" : 384,
            "byteOffset" : 384
        },
        {
            "buffer" : 0,
            "byteLength" : 256,
            "byteOffset" : 768
        },
        {
            "buffer" : 0,
            "byteLength" : 180,
            "byteOffset" : 1024
        }
    ],
    "buffers" : [
        {
            "byteLength" : 1204,
            "uri" : "data:application/octet-stream;base64,"
        }
    ]
}
