{
    "asset" : {
        "generator" : "Khronos glTF Blender I/O v1.8.19",
        "version" : "2.0"
    },
    "scene" : 0,
    "scenes" : [
        {
            "extras" : {
                "b_export" : 1,
                "b_settings" : 1,
                "b_vr_controllers" : 0,
                "b_camera_cube" : 0,
                "s_aframe_version" : "1.3.0",
                "b_renderer" : 0,
                "b_player" : 0,
                "b_interactive" : 0,
                "b_bake_lightmap" : 0,
                "s_output" : "exporting...",
                "b_cubemap" : 1,
                "b_use_default_lights" : 0,
                "f_player_height" : 1.600000023841858,
                "b_export_single_model" : 0,
                "b_cubemap_background" : 0,
                "b_show_env_sky" : 0,
                "b_raycast" : 0,
                "s_showhide_object" : "Plane.001",
                "export_path" : "C:/Temp/Dev"
            },
            "name" : "Scene",
            "nodes" : [
                0
            ]
        }
    ],
    "nodes" : [
        {
            "mesh" : 0,
            "name" : "Text.004",
            "rotation" : [
                0.7071068286895752,
                0,
                0,
                0.7071068286895752
            ],
            "scale" : [
                0.26100000739097595,
                0.26100000739097595,
                0.26100000739097595
            ]
        }
    ],
    "materials" : [
        {
            "doubleSided" : true,
            "name" : "Network Yellow",
            "pbrMetallicRoughness" : {
                "baseColorFactor" : [
                    1.0000001192092896,
                    0.8227859139442444,
                    0,
                    1
                ],
                "metallicFactor" : 0,
                "roughnessFactor" : 0.5
            }
        }
    ],
    "meshes" : [
        {
            "name" : "Text.007",
            "primitives" : [
                {
                    "attributes" : {
                        "POSITION" : 0,
                        "NORMAL" : 1,
                        "TANGENT" : 2,
                        "TEXCOORD_0" : 3
                    },
                    "indices" : 4,
                    "material" : 0
                }
            ]
        }
    ],
    "accessors" : [
        {
            "bufferView" : 0,
            "componentType" : 5126,
            "count" : 9351,
            "max" : [
                1.268007755279541,
                0.029999999329447746,
                0.1850046068429947
            ],
            "min" : [
                -1.268007755279541,
                -0.029999999329447746,
                -0.1850046068429947
            ],
            "type" : "VEC3"
        },
        {
            "bufferView" : 1,
            "componentType" : 5126,
            "count" : 9351,
            "type" : "VEC3"
        },
        {
            "bufferView" : 2,
            "componentType" : 5126,
            "count" : 9351,
            "type" : "VEC4"
        },
        {
            "bufferView" : 3,
            "componentType" : 5126,
            "count" : 9351,
            "type" : "VEC2"
        },
        {
            "bufferView" : 4,
            "componentType" : 5123,
            "count" : 40152,
            "type" : "SCALAR"
        }
    ],
    "bufferViews" : [
        {
            "buffer" : 0,
            "byteLength" : 112212,
            "byteOffset" : 0
        },
        {
            "buffer" : 0,
            "byteLength" : 112212,
            "byteOffset" : 112212
        },
        {
            "buffer" : 0,
            "byteLength" : 149616,
            "byteOffset" : 224424
        },
        {
            "buffer" : 0,
            "byteLength" : 74808,
            "byteOffset" : 374040
        },
        {
            "buffer" : 0,
            "byteLength" : 80304,
            "byteOffset" : 448848
        }
    ],
    "buffers" : [
        {
            "byteLength" : 529152,
            "uri" : "data:application/octet-stream;base64,"
        }
    ]
}
