{
    "asset" : {
        "generator" : "Khronos glTF Blender I/O v1.8.19",
        "version" : "2.0"
    },
    "scene" : 0,
    "scenes" : [
        {
            "extras" : {
                "b_export" : 1,
                "b_settings" : 1,
                "b_vr_controllers" : 0,
                "b_camera_cube" : 0,
                "s_aframe_version" : "1.3.0",
                "b_renderer" : 0,
                "b_player" : 0,
                "b_interactive" : 0,
                "b_bake_lightmap" : 0,
                "s_output" : "exporting...",
                "b_cubemap" : 1,
                "b_use_default_lights" : 0,
                "f_player_height" : 1.600000023841858,
                "b_export_single_model" : 0,
                "b_cubemap_background" : 0,
                "b_show_env_sky" : 0,
                "b_raycast" : 0,
                "s_showhide_object" : "Plane.001",
                "export_path" : "C:/Temp/Dev"
            },
            "name" : "Scene",
            "nodes" : [
                0
            ]
        }
    ],
    "nodes" : [
        {
            "mesh" : 0,
            "name" : "Text.001",
            "rotation" : [
                0.7071068286895752,
                0,
                0,
                0.7071068286895752
            ],
            "scale" : [
                0.26266923546791077,
                0.26266923546791077,
                0.26266923546791077
            ]
        }
    ],
    "materials" : [
        {
            "doubleSided" : true,
            "name" : "Moxa_Green",
            "pbrMetallicRoughness" : {
                "baseColorFactor" : [
                    0.013351736590266228,
                    0.24227026104927063,
                    0.003687086049467325,
                    1
                ],
                "metallicFactor" : 0,
                "roughnessFactor" : 0.5
            }
        }
    ],
    "meshes" : [
        {
            "name" : "Text.002",
            "primitives" : [
                {
                    "attributes" : {
                        "POSITION" : 0,
                        "NORMAL" : 1,
                        "TANGENT" : 2,
                        "TEXCOORD_0" : 3
                    },
                    "indices" : 4,
                    "material" : 0
                }
            ]
        }
    ],
    "accessors" : [
        {
            "bufferView" : 0,
            "componentType" : 5126,
            "count" : 15218,
            "max" : [
                1.1492500305175781,
                0.029999999329447746,
                0.49026259779930115
            ],
            "min" : [
                -1.1492500305175781,
                -0.029999999329447746,
                -0.49026259779930115
            ],
            "type" : "VEC3"
        },
        {
            "bufferView" : 1,
            "componentType" : 5126,
            "count" : 15218,
            "type" : "VEC3"
        },
        {
            "bufferView" : 2,
            "componentType" : 5126,
            "count" : 15218,
            "type" : "VEC4"
        },
        {
            "bufferView" : 3,
            "componentType" : 5126,
            "count" : 15218,
            "type" : "VEC2"
        },
        {
            "bufferView" : 4,
            "componentType" : 5123,
            "count" : 65292,
            "type" : "SCALAR"
        }
    ],
    "bufferViews" : [
        {
            "buffer" : 0,
            "byteLength" : 182616,
            "byteOffset" : 0
        },
        {
            "buffer" : 0,
            "byteLength" : 182616,
            "byteOffset" : 182616
        },
        {
            "buffer" : 0,
            "byteLength" : 243488,
            "byteOffset" : 365232
        },
        {
            "buffer" : 0,
            "byteLength" : 121744,
            "byteOffset" : 608720
        },
        {
            "buffer" : 0,
            "byteLength" : 130584,
            "byteOffset" : 730464
        }
    ],
    "buffers" : [
        {
            "byteLength" : 861048,
            "uri" : "data:application/octet-stream;base64,"
        }
    ]
}
