{
    "asset" : {
        "generator" : "Khronos glTF Blender I/O v1.8.19",
        "version" : "2.0"
    },
    "scene" : 0,
    "scenes" : [
        {
            "extras" : {
                "b_export" : 1,
                "b_settings" : 1,
                "b_vr_controllers" : 0,
                "b_camera_cube" : 0,
                "s_aframe_version" : "1.3.0",
                "b_renderer" : 0,
                "b_player" : 0,
                "b_interactive" : 0,
                "b_bake_lightmap" : 0,
                "s_output" : "exporting...",
                "b_cubemap" : 1,
                "b_use_default_lights" : 0,
                "f_player_height" : 1.600000023841858,
                "b_export_single_model" : 0,
                "b_cubemap_background" : 0,
                "b_show_env_sky" : 0,
                "b_raycast" : 0,
                "s_showhide_object" : "Plane.001",
                "export_path" : "C:/Temp/Dev"
            },
            "name" : "Scene",
            "nodes" : [
                0
            ]
        }
    ],
    "nodes" : [
        {
            "mesh" : 0,
            "name" : "Text.005",
            "rotation" : [
                0.7071068286895752,
                0,
                0,
                0.7071068286895752
            ],
            "scale" : [
                0.37345731258392334,
                0.37345731258392334,
                0.37345731258392334
            ]
        }
    ],
    "materials" : [
        {
            "doubleSided" : true,
            "name" : "EtherCAT",
            "pbrMetallicRoughness" : {
                "baseColorFactor" : [
                    0.0021205139346420765,
                    0.003804771462455392,
                    0.006553678773343563,
                    1
                ],
                "metallicFactor" : 0,
                "roughnessFactor" : 0.5
            }
        },
        {
            "doubleSided" : true,
            "name" : "EtherCAT_Red",
            "pbrMetallicRoughness" : {
                "baseColorFactor" : [
                    0.8000000715255737,
                    0.015054356306791306,
                    0.009446660056710243,
                    1
                ],
                "metallicFactor" : 0,
                "roughnessFactor" : 0.5
            }
        }
    ],
    "meshes" : [
        {
            "name" : "Text.008",
            "primitives" : [
                {
                    "attributes" : {
                        "POSITION" : 0,
                        "NORMAL" : 1,
                        "TEXCOORD_0" : 2
                    },
                    "indices" : 3,
                    "material" : 0
                },
                {
                    "attributes" : {
                        "POSITION" : 4,
                        "NORMAL" : 5,
                        "TEXCOORD_0" : 6
                    },
                    "indices" : 7,
                    "material" : 1
                }
            ]
        }
    ],
    "accessors" : [
        {
            "bufferView" : 0,
            "componentType" : 5126,
            "count" : 6561,
            "max" : [
                1.1148254871368408,
                0.029999999329447746,
                0.24225173890590668
            ],
            "min" : [
                -1.1148254871368408,
                -0.029999999329447746,
                -0.12776346504688263
            ],
            "type" : "VEC3"
        },
        {
            "bufferView" : 1,
            "componentType" : 5126,
            "count" : 6561,
            "type" : "VEC3"
        },
        {
            "bufferView" : 2,
            "componentType" : 5126,
            "count" : 6561,
            "type" : "VEC2"
        },
        {
            "bufferView" : 3,
            "componentType" : 5123,
            "count" : 28656,
            "type" : "SCALAR"
        },
        {
            "bufferView" : 4,
            "componentType" : 5126,
            "count" : 12,
            "max" : [
                1.1148254871368408,
                0.019999997690320015,
                -0.1588892787694931
            ],
            "min" : [
                0.6476744413375854,
                -0.020000005140900612,
                -0.24225173890590668
            ],
            "type" : "VEC3"
        },
        {
            "bufferView" : 5,
            "componentType" : 5126,
            "count" : 12,
            "type" : "VEC3"
        },
        {
            "bufferView" : 6,
            "componentType" : 5126,
            "count" : 12,
            "type" : "VEC2"
        },
        {
            "bufferView" : 7,
            "componentType" : 5123,
            "count" : 60,
            "type" : "SCALAR"
        }
    ],
    "bufferViews" : [
        {
            "buffer" : 0,
            "byteLength" : 78732,
            "byteOffset" : 0
        },
        {
            "buffer" : 0,
            "byteLength" : 78732,
            "byteOffset" : 78732
        },
        {
            "buffer" : 0,
            "byteLength" : 52488,
            "byteOffset" : 157464
        },
        {
            "buffer" : 0,
            "byteLength" : 57312,
            "byteOffset" : 209952
        },
        {
            "buffer" : 0,
            "byteLength" : 144,
            "byteOffset" : 267264
        },
        {
            "buffer" : 0,
            "byteLength" : 144,
            "byteOffset" : 267408
        },
        {
            "buffer" : 0,
            "byteLength" : 96,
            "byteOffset" : 267552
        },
        {
            "buffer" : 0,
            "byteLength" : 120,
            "byteOffset" : 267648
        }
    ],
    "buffers" : [
        {
            "byteLength" : 267768,
            "uri" : "data:application/octet-stream;base64,"
        }
    ]
}
